<svg width="640" height="180" viewBox="0 0 640 180" fill="none" xmlns="http://www.w3.org/2000/svg">
  <path d="M54 144V36H95.2L132.92 103.36L170.8 36H212V144H177.44V93.76L154.72 134H110.96L88.4 94.08V144H54Z" fill="white"/>
  <path d="M238.18 144L273.86 36H328.02L363.54 144H326.74L320.26 122.08H281L274.52 144H238.18ZM288.1 98.84H313L300.58 56.84L288.1 98.84Z" fill="white"/>
  <path d="M382.339 144V36H464.459V62.76H417.219V76.72H460.099V102.22H417.219V117.24H465.699V144H382.339Z" fill="white"/>
  <path d="M488.464 144V36H570.584V62.76H523.344V76.72H566.224V102.22H523.344V117.24H571.824V144H488.464Z" fill="white"/>
</svg>
